<svg xmlns="http://www.w3.org/2000/svg" width="16.778" height="16.798" viewBox="0 0 16.778 16.798">
  <path id="edit" d="M7.216,22.748A1.247,1.247,0,0,1,6,21.532V9.374A1.247,1.247,0,0,1,7.216,8.159h8.207L14.207,9.374H7.216V21.532H19.374V14.481l1.216-1.216v8.267a1.247,1.247,0,0,1-1.216,1.216ZM13.295,15.453Zm3.688-7.133.871.851-5.775,5.755v1.743H13.8l5.8-5.8.851.851-6.14,6.16H10.863V14.44Zm3.465,3.4-3.465-3.4,2.026-2.026a1.168,1.168,0,0,1,.861-.344,1.135,1.135,0,0,1,.861.365l1.7,1.722a1.213,1.213,0,0,1,.344.861,1.113,1.113,0,0,1-.365.841Z" transform="translate(-6 -5.95)" fill="#222"/>
</svg>
