<svg xmlns="http://www.w3.org/2000/svg" width="22" height="22" viewBox="0 0 22 22">
  <path id="Globe_icon" data-name="Globe icon" d="M16,27a10.73,10.73,0,0,1-4.3-.868,11.146,11.146,0,0,1-3.5-2.359A10.988,10.988,0,0,1,5,15.942a10.782,10.782,0,0,1,.854-4.284A10.99,10.99,0,0,1,8.2,8.17a10.753,10.753,0,0,1,3.5-2.33,11.426,11.426,0,0,1,8.6,0,10.754,10.754,0,0,1,3.5,2.33,10.99,10.99,0,0,1,2.345,3.488A10.782,10.782,0,0,1,27,15.942a10.988,10.988,0,0,1-3.2,7.83,11.146,11.146,0,0,1-3.5,2.359A10.73,10.73,0,0,1,16,27Zm0-1.245a11.816,11.816,0,0,0,1.766-2.547,15.274,15.274,0,0,0,1.158-3.184H13.105a15,15,0,0,0,1.129,3.184A10.942,10.942,0,0,0,16,25.755Zm-1.824-.261a10.948,10.948,0,0,1-1.462-2.446,15.411,15.411,0,0,1-.97-3.025h-4.6A9.743,9.743,0,0,0,9.921,23.57a11.4,11.4,0,0,0,4.255,1.925Zm3.676,0a10.483,10.483,0,0,0,4.125-1.939,9.965,9.965,0,0,0,2.88-3.532H20.284a21.171,21.171,0,0,1-1.042,3.011A12.994,12.994,0,0,1,17.853,25.495ZM6.708,18.721h4.776q-.087-.811-.116-1.476t-.029-1.3q0-.695.029-1.317a12.125,12.125,0,0,1,.145-1.346H6.708a9.887,9.887,0,0,0-.3,1.288,8.589,8.589,0,0,0-.1,1.375,9.355,9.355,0,0,0,.1,1.433A10.672,10.672,0,0,0,6.708,18.721Zm6.137,0h6.339q.116-.9.159-1.505t.043-1.274q0-.608-.043-1.2t-.159-1.462H12.845q-.116.868-.159,1.462t-.043,1.2q0,.666.043,1.274t.159,1.505Zm7.642,0h4.805a10.671,10.671,0,0,0,.3-1.346,9.355,9.355,0,0,0,.1-1.433,8.59,8.59,0,0,0-.1-1.375,9.886,9.886,0,0,0-.3-1.288H20.516q.087.955.13,1.549t.043,1.114q0,.666-.043,1.288t-.159,1.491Zm-.232-6.774h4.6a9.513,9.513,0,0,0-2.822-3.6,9.778,9.778,0,0,0-4.212-1.867,11.833,11.833,0,0,1,1.433,2.461A18.662,18.662,0,0,1,20.255,11.947Zm-7.15,0h5.847a12.614,12.614,0,0,0-1.143-3.068A12.192,12.192,0,0,0,16,6.3a7.744,7.744,0,0,0-1.664,2.229A17.356,17.356,0,0,0,13.105,11.947Zm-5.963,0h4.6a16.92,16.92,0,0,1,.97-2.938,13.592,13.592,0,0,1,1.433-2.5A9.749,9.749,0,0,0,9.964,8.343,9.592,9.592,0,0,0,7.142,11.947Z" transform="translate(-5 -5)" fill="#222"/>
</svg>
