<svg xmlns="http://www.w3.org/2000/svg" xmlns:xlink="http://www.w3.org/1999/xlink" width="119.711" height="41" viewBox="0 0 119.711 41">
  <defs>
    <filter id="BG" x="78.711" y="0" width="41" height="41" filterUnits="userSpaceOnUse">
      <feOffset dx="1" dy="1" input="SourceAlpha"/>
      <feGaussianBlur stdDeviation="3" result="blur"/>
      <feFlood flood-color="#f3f3f3"/>
      <feComposite operator="in" in2="blur"/>
    </filter>
    <filter id="BG-2" x="78.711" y="0" width="41" height="41" filterUnits="userSpaceOnUse">
      <feOffset dx="1" dy="1" input="SourceAlpha"/>
      <feGaussianBlur stdDeviation="3" result="blur-2"/>
      <feFlood flood-color="#f3f3f3" result="color"/>
      <feComposite operator="out" in="SourceGraphic" in2="blur-2"/>
      <feComposite operator="in" in="color"/>
      <feComposite operator="in" in2="SourceGraphic"/>
    </filter>
    <clipPath id="clip-path">
      <rect id="Rectangle_5213" data-name="Rectangle 5213" width="19.942" height="20.97" fill="none"/>
    </clipPath>
    <clipPath id="clip-path-2">
      <path id="Path_10240" data-name="Path 10240" d="M10.221,10.249,5.03,19.242a25.552,25.552,0,0,0,2.99,1.5c3.891,1.635,8.9-.506,11.548-5.095s2-10-1.363-12.548a25.339,25.339,0,0,0-2.793-1.841Z" transform="translate(-5.03 -1.257)" fill="none"/>
    </clipPath>
    <linearGradient id="linear-gradient" x1="0.04" y1="0.875" x2="0.068" y2="0.875" gradientUnits="objectBoundingBox">
      <stop offset="0" stop-color="#e86f0c"/>
      <stop offset="0.688" stop-color="#fc940d"/>
      <stop offset="1" stop-color="#e86f0c"/>
    </linearGradient>
    <clipPath id="clip-path-4">
      <rect id="Rectangle_5195" data-name="Rectangle 5195" width="9.729" height="14.737" fill="none"/>
    </clipPath>
    <clipPath id="clip-path-5">
      <path id="Path_10241" data-name="Path 10241" d="M20.021,4.918c2.325,1.764,3.113,5.688,1.734,9.109s-4.434,5.125-7.035,4.046a16.7,16.7,0,0,1-2.014-1.007l2.7-6.7,2.7-6.7a17.571,17.571,0,0,1,1.912,1.261" transform="translate(-12.706 -3.657)" fill="none" clip-rule="evenodd"/>
    </clipPath>
    <radialGradient id="radial-gradient" cx="0.261" cy="0.444" r="0.629" gradientUnits="objectBoundingBox">
      <stop offset="0" stop-color="#fff369"/>
      <stop offset="0.11" stop-color="#faee67"/>
      <stop offset="0.234" stop-color="#ece161"/>
      <stop offset="0.365" stop-color="#d6cc58"/>
      <stop offset="0.5" stop-color="#b6ae4b"/>
      <stop offset="0.639" stop-color="#8e873a"/>
      <stop offset="0.781" stop-color="#5c5826"/>
      <stop offset="0.922" stop-color="#22210e"/>
      <stop offset="1"/>
    </radialGradient>
    <clipPath id="clip-path-6">
      <rect id="Rectangle_5197" data-name="Rectangle 5197" width="16.174" height="20.021" fill="none"/>
    </clipPath>
    <clipPath id="clip-path-7">
      <path id="Path_10242" data-name="Path 10242" d="M18.433,4.127c2.865,2.182,3.5,6.886,1.345,10.918-2,3.749-5.749,5.679-8.915,4.827a7.512,7.512,0,0,1-5.833-.627,25.485,25.485,0,0,0,2.99,1.5c3.892,1.635,8.9-.506,11.549-5.094s2-10-1.363-12.549a25.5,25.5,0,0,0-2.78-1.832,7.091,7.091,0,0,1,2.521,2.5c.163.117.324.236.486.36" transform="translate(-5.03 -1.267)" fill="none" clip-rule="evenodd"/>
    </clipPath>
    <radialGradient id="radial-gradient-2" cx="0.196" cy="0.379" r="0.67" gradientUnits="objectBoundingBox">
      <stop offset="0" stop-color="#fff"/>
      <stop offset="0.515" stop-color="#fff"/>
      <stop offset="0.677" stop-color="#e6ddc3"/>
      <stop offset="1" stop-color="#b09444"/>
    </radialGradient>
    <clipPath id="clip-path-8">
      <rect id="Rectangle_5198" data-name="Rectangle 5198" width="17.084" height="19.15" fill="none"/>
    </clipPath>
    <clipPath id="clip-path-9">
      <path id="Path_10244" data-name="Path 10244" d="M10.521,0c-3.3.02-6.791,2.132-8.862,5.718C-1.209,10.685-.264,16.6,3.768,18.926s9.625.19,12.493-4.776S18.184,3.269,14.152.942A7.1,7.1,0,0,0,10.61,0Z" transform="translate(0)" fill="none"/>
    </clipPath>
    <radialGradient id="radial-gradient-3" cx="0.317" cy="0.027" r="0.854" gradientUnits="objectBoundingBox">
      <stop offset="0" stop-color="#fcf80d"/>
      <stop offset="1" stop-color="#fc9c0d"/>
    </radialGradient>
    <clipPath id="clip-path-11">
      <rect id="Rectangle_5201" data-name="Rectangle 5201" width="13.517" height="16.055" fill="none"/>
    </clipPath>
    <clipPath id="clip-path-12">
      <path id="Path_10246" data-name="Path 10246" d="M3.9,7.344c-2.239,3.878-1.61,8.433,1.406,10.174s7.275.009,9.515-3.869,1.609-8.433-1.406-10.174A5.134,5.134,0,0,0,10.827,2.8,8.465,8.465,0,0,0,3.9,7.344" transform="translate(-2.56 -2.798)" fill="none"/>
    </clipPath>
    <radialGradient id="radial-gradient-4" cx="-0.065" cy="-0.202" r="1.347" gradientUnits="objectBoundingBox">
      <stop offset="0" stop-color="#fcf80d"/>
      <stop offset="1" stop-color="#f78a0c"/>
    </radialGradient>
    <clipPath id="clip-path-14">
      <rect id="Rectangle_5205" data-name="Rectangle 5205" width="13.081" height="15.044" fill="none"/>
    </clipPath>
    <clipPath id="clip-path-15">
      <path id="Path_10247" data-name="Path 10247" d="M5.545,8.88C7.665,5.209,11.7,3.569,14.553,5.217a4.736,4.736,0,0,1,1.088.864,5.272,5.272,0,0,0-2.226-2.606C10.4,1.734,6.14,3.466,3.9,7.344S2.292,15.777,5.307,17.518a4.916,4.916,0,0,0,.673.324C3.92,15.88,3.669,12.129,5.545,8.88" transform="translate(-2.56 -2.798)" fill="none" clip-rule="evenodd"/>
    </clipPath>
    <radialGradient id="radial-gradient-5" cx="0.813" cy="0.649" r="0.795" gradientUnits="objectBoundingBox">
      <stop offset="0" stop-color="#fff"/>
      <stop offset="0.515" stop-color="#fff"/>
      <stop offset="0.683" stop-color="#ffe2c3"/>
      <stop offset="1" stop-color="#ffa84b"/>
    </radialGradient>
    <clipPath id="clip-path-16">
      <path id="Path_10248" data-name="Path 10248" d="M3.9,7.344c-2.239,3.878-1.61,8.433,1.406,10.174.081.046.163.091.245.133s.178.087.269.126c-.08-.059-.159-.121-.234-.186-2.387-2.007-2.74-6.123-.691-9.673s5.791-5.3,8.722-4.237c.094.034.187.07.279.109-.079-.058-.16-.115-.244-.17s-.156-.1-.236-.145A5.134,5.134,0,0,0,10.827,2.8,8.464,8.464,0,0,0,3.9,7.344" transform="translate(-2.56 -2.798)" fill="none"/>
    </clipPath>
    <linearGradient id="linear-gradient-2" x1="0.129" y1="1.128" x2="0.168" y2="1.128" gradientUnits="objectBoundingBox">
      <stop offset="0" stop-color="#fc940d"/>
      <stop offset="1" stop-color="#e86f0c"/>
    </linearGradient>
    <clipPath id="clip-path-18">
      <rect id="Rectangle_5209" data-name="Rectangle 5209" width="11.335" height="14.978" fill="none"/>
    </clipPath>
    <clipPath id="clip-path-19">
      <path id="Path_10249" data-name="Path 10249" d="M11.51,3.381a5.327,5.327,0,0,1,2.108.3c.094.034.186.071.278.111-.079-.059-.16-.116-.243-.17s-.157-.1-.237-.146C10.4,1.734,6.14,3.466,3.9,7.344S2.292,15.777,5.307,17.518q.121.07.245.133c.088.045.178.087.269.126-.08-.06-.158-.121-.234-.185a5.176,5.176,0,0,1-.957-1.068c-2.224-1.866-2.592-5.711-.737-9.034,1.768-3.166,4.97-4.812,7.617-4.108" transform="translate(-2.56 -2.798)" fill="none" clip-rule="evenodd"/>
    </clipPath>
    <radialGradient id="radial-gradient-6" cx="0.947" cy="0.685" r="0.774" xlink:href="#radial-gradient-2"/>
    <clipPath id="clip-path-20">
      <rect id="Rectangle_5211" data-name="Rectangle 5211" width="9.673" height="9.531" fill="none"/>
    </clipPath>
    <clipPath id="clip-path-21">
      <path id="Path_10250" data-name="Path 10250" d="M14.7,5.785C9.36,3.356,4.369,10.32,5.1,14.816c2.957-1.1,7.872-3.525,9.6-9.031" transform="translate(-5.032 -5.285)" fill="none" clip-rule="evenodd"/>
    </clipPath>
    <radialGradient id="radial-gradient-7" cx="-0.341" cy="-0.262" r="1.441" xlink:href="#radial-gradient"/>
  </defs>
  <g id="Add_points" data-name="Add points" transform="translate(-1367.145 -532)">
    <g id="Add_coin" data-name="Add coin" transform="translate(-173.145 35)">
      <g data-type="innerShadowGroup">
        <g transform="matrix(1, 0, 0, 1, 1540.29, 497)" filter="url(#BG)">
          <g id="BG-3" data-name="BG" transform="translate(86.71 8)" fill="#fff" stroke="#bcbcbc" stroke-width="0.2">
            <rect width="23" height="23" rx="2.5" stroke="none"/>
            <rect x="0.1" y="0.1" width="22.8" height="22.8" rx="2.4" fill="none"/>
          </g>
        </g>
        <rect id="BG-4" data-name="BG" width="23" height="23" rx="2.5" transform="translate(1627 505)" fill="#fff"/>
        <g transform="matrix(1, 0, 0, 1, 1540.29, 497)" filter="url(#BG-2)">
          <rect id="BG-5" data-name="BG" width="23" height="23" rx="2.5" transform="translate(86.71 8)" fill="#fff"/>
        </g>
        <g id="BG-6" data-name="BG" transform="translate(1627 505)" fill="none" stroke="#bcbcbc" stroke-width="0.2">
          <rect width="23" height="23" rx="2.5" stroke="none"/>
          <rect x="0.1" y="0.1" width="22.8" height="22.8" rx="2.4" fill="none"/>
        </g>
      </g>
      <path id="Add" d="M6.555-3.276V.383H4.937V-3.276H1.25V-4.967H4.937v-3.65H6.555v3.65h3.7v1.691Z" transform="translate(1632.75 520.617)" fill="#222"/>
    </g>
    <text id="_2000pt" data-name="2000pt" transform="translate(1418.57 557)" fill="#222" font-size="14" font-family="Helvetica" letter-spacing="-0.02em"><tspan x="-20" y="0">2000pt</tspan></text>
    <g id="coin" transform="translate(1367.145 541)">
      <g id="Group_17580" data-name="Group 17580" clip-path="url(#clip-path)">
        <g id="Group_17534" data-name="Group 17534" transform="translate(3.768 0.942)">
          <g id="Group_17533" data-name="Group 17533" clip-path="url(#clip-path-2)">
            <rect id="Rectangle_5193" data-name="Rectangle 5193" width="26.882" height="25.444" transform="translate(-9.144 15.838) rotate(-60)" fill="url(#linear-gradient)"/>
          </g>
        </g>
        <g id="Group_17549" data-name="Group 17549" transform="translate(0 0)">
          <g id="Group_17548" data-name="Group 17548" clip-path="url(#clip-path)">
            <g id="Group_17539" data-name="Group 17539" transform="translate(9.518 2.739)" style="mix-blend-mode: screen;isolation: isolate">
              <g id="Group_17538" data-name="Group 17538">
                <g id="Group_17537" data-name="Group 17537" clip-path="url(#clip-path-4)">
                  <g id="Group_17536" data-name="Group 17536" transform="translate(0 0)">
                    <g id="Group_17535" data-name="Group 17535" clip-path="url(#clip-path-5)">
                      <rect id="Rectangle_5194" data-name="Rectangle 5194" width="10.428" height="15.495" transform="translate(0 0)" fill="url(#radial-gradient)"/>
                    </g>
                  </g>
                </g>
              </g>
            </g>
            <g id="Group_17544" data-name="Group 17544" transform="translate(3.768 0.949)" style="mix-blend-mode: multiply;isolation: isolate">
              <g id="Group_17543" data-name="Group 17543">
                <g id="Group_17542" data-name="Group 17542" clip-path="url(#clip-path-6)">
                  <g id="Group_17541" data-name="Group 17541" transform="translate(0 0)">
                    <g id="Group_17540" data-name="Group 17540" clip-path="url(#clip-path-7)">
                      <rect id="Rectangle_5196" data-name="Rectangle 5196" width="17.188" height="21.111" transform="translate(0 0)" fill="url(#radial-gradient-2)"/>
                    </g>
                  </g>
                </g>
              </g>
            </g>
            <g id="Group_17547" data-name="Group 17547" transform="translate(1.166 0.486)" style="mix-blend-mode: screen;isolation: isolate">
              <g id="Group_17546" data-name="Group 17546">
                <g id="Group_17545" data-name="Group 17545" clip-path="url(#clip-path-8)">
                  <path id="Path_10243" data-name="Path 10243" d="M15.122,1.521c3.815,2.2,4.658,7.884,1.883,12.691S8.888,21.129,5.073,18.927.416,11.042,3.191,6.236,11.308-.682,15.122,1.521" transform="translate(-1.556 -0.648)" fill="#fcce3a" fill-rule="evenodd"/>
                </g>
              </g>
            </g>
          </g>
        </g>
        <g id="Group_17551" data-name="Group 17551" transform="translate(0)">
          <g id="Group_17550" data-name="Group 17550" clip-path="url(#clip-path-9)">
            <rect id="Rectangle_5200" data-name="Rectangle 5200" width="20.338" height="21.255" transform="translate(-1.209 0)" fill="url(#radial-gradient-3)"/>
          </g>
        </g>
        <g id="Group_17556" data-name="Group 17556" transform="translate(0 0)">
          <g id="Group_17555" data-name="Group 17555" clip-path="url(#clip-path)">
            <g id="Group_17554" data-name="Group 17554" transform="translate(1.976 1.708)" style="mix-blend-mode: screen;isolation: isolate">
              <g id="Group_17553" data-name="Group 17553">
                <g id="Group_17552" data-name="Group 17552" clip-path="url(#clip-path-11)">
                  <path id="Path_10245" data-name="Path 10245" d="M10.653,17.769a.737.737,0,0,1-.544.506.768.768,0,0,1-.651-.1,5.361,5.361,0,0,1-3.537-.316C2.72,16.365,1.682,11.818,3.6,7.7a9.343,9.343,0,0,1,4.623-4.7A.722.722,0,0,1,8.793,2.4a.744.744,0,0,1,.758.192,5.779,5.779,0,0,1,1.283-.112.491.491,0,0,1,.524-.186.522.522,0,0,1,.379.288,5.06,5.06,0,0,1,1.136.373c3.2,1.493,4.239,6.039,2.319,10.155a9.366,9.366,0,0,1-4.539,4.66" transform="translate(-2.638 -2.28)" fill="#fffce4" fill-rule="evenodd"/>
                </g>
              </g>
            </g>
          </g>
        </g>
        <g id="Group_17558" data-name="Group 17558" transform="translate(1.918 2.096)">
          <g id="Group_17557" data-name="Group 17557" clip-path="url(#clip-path-12)">
            <rect id="Rectangle_5203" data-name="Rectangle 5203" width="15.398" height="16.461" transform="translate(-0.898 0)" fill="url(#radial-gradient-4)"/>
          </g>
        </g>
        <g id="Group_17565" data-name="Group 17565" transform="translate(0 0)">
          <g id="Group_17564" data-name="Group 17564" clip-path="url(#clip-path)">
            <g id="Group_17563" data-name="Group 17563" transform="translate(1.918 2.096)" opacity="0.5" style="mix-blend-mode: multiply;isolation: isolate">
              <g id="Group_17562" data-name="Group 17562">
                <g id="Group_17561" data-name="Group 17561" clip-path="url(#clip-path-14)">
                  <g id="Group_17560" data-name="Group 17560" transform="translate(0 0)">
                    <g id="Group_17559" data-name="Group 17559" clip-path="url(#clip-path-15)">
                      <rect id="Rectangle_5204" data-name="Rectangle 5204" width="13.979" height="16.108" transform="translate(-0.898 -1.064)" fill="url(#radial-gradient-5)"/>
                    </g>
                  </g>
                </g>
              </g>
            </g>
          </g>
        </g>
        <g id="Group_17567" data-name="Group 17567" transform="translate(1.918 2.096)">
          <g id="Group_17566" data-name="Group 17566" clip-path="url(#clip-path-16)">
            <rect id="Rectangle_5207" data-name="Rectangle 5207" width="19.245" height="18.174" transform="matrix(0.5, -0.866, 0.866, 0.5, -7.462, 11.189)" fill="url(#linear-gradient-2)"/>
          </g>
        </g>
        <g id="Group_17579" data-name="Group 17579" transform="translate(0 0)">
          <g id="Group_17578" data-name="Group 17578" clip-path="url(#clip-path)">
            <g id="Group_17572" data-name="Group 17572" transform="translate(1.918 2.096)" style="mix-blend-mode: multiply;isolation: isolate">
              <g id="Group_17571" data-name="Group 17571">
                <g id="Group_17570" data-name="Group 17570" clip-path="url(#clip-path-18)">
                  <g id="Group_17569" data-name="Group 17569" transform="translate(0 0)">
                    <g id="Group_17568" data-name="Group 17568" clip-path="url(#clip-path-19)">
                      <rect id="Rectangle_5208" data-name="Rectangle 5208" width="12.234" height="16.042" transform="translate(-0.898 -1.064)" fill="url(#radial-gradient-6)"/>
                    </g>
                  </g>
                </g>
              </g>
            </g>
            <g id="Group_17577" data-name="Group 17577" transform="translate(3.769 3.959)" style="mix-blend-mode: screen;isolation: isolate">
              <g id="Group_17576" data-name="Group 17576">
                <g id="Group_17575" data-name="Group 17575" clip-path="url(#clip-path-20)">
                  <g id="Group_17574" data-name="Group 17574" transform="translate(0 0)">
                    <g id="Group_17573" data-name="Group 17573" clip-path="url(#clip-path-21)">
                      <rect id="Rectangle_5210" data-name="Rectangle 5210" width="10.336" height="11.46" transform="translate(-0.663 -1.929)" fill="url(#radial-gradient-7)"/>
                    </g>
                  </g>
                </g>
              </g>
            </g>
          </g>
        </g>
      </g>
    </g>
  </g>
</svg>
