<svg xmlns="http://www.w3.org/2000/svg" xmlns:xlink="http://www.w3.org/1999/xlink" width="37" height="37" viewBox="0 0 37 37">
  <defs>
    <filter id="Profile_bg" x="0" y="0" width="37" height="37" filterUnits="userSpaceOnUse">
      <feOffset dx="1" dy="1" input="SourceAlpha"/>
      <feGaussianBlur stdDeviation="4" result="blur"/>
      <feFlood flood-color="#636363" flood-opacity="0.365" result="color"/>
      <feComposite operator="out" in="SourceGraphic" in2="blur"/>
      <feComposite operator="in" in="color"/>
      <feComposite operator="in" in2="SourceGraphic"/>
    </filter>
  </defs>
  <g id="User_profile" data-name="User profile" transform="translate(-1773 -63.5)">
    <g data-type="innerShadowGroup">
      <g id="Profile_bg-2" data-name="Profile bg" transform="translate(1773 63.5)" fill="#e8e8e8">
        <path d="M18.5,0A18.5,18.5,0,1,1,0,18.5,18.5,18.5,0,0,1,18.5,0Z" stroke="none"/>
        <path d="M 18.5 1 C 13.82558059692383 1 9.430940628051758 2.820320129394531 6.125629425048828 6.125629425048828 C 2.820320129394531 9.430940628051758 1 13.82558059692383 1 18.5 C 1 23.17441940307617 2.820320129394531 27.56906127929688 6.125629425048828 30.87437057495117 C 9.430940628051758 34.17967987060547 13.82558059692383 36 18.5 36 C 23.17441940307617 36 27.56906127929688 34.17967987060547 30.87437057495117 30.87437057495117 C 34.17967987060547 27.56906127929688 36 23.17441940307617 36 18.5 C 36 13.82558059692383 34.17967987060547 9.430940628051758 30.87437057495117 6.125629425048828 C 27.56906127929688 2.820320129394531 23.17441940307617 1 18.5 1 M 18.5 0 C 28.71726989746094 0 37 8.282730102539062 37 18.5 C 37 28.71726989746094 28.71726989746094 37 18.5 37 C 8.282730102539062 37 0 28.71726989746094 0 18.5 C 0 8.282730102539062 8.282730102539062 0 18.5 0 Z" stroke="none"/>
      </g>
      <g transform="matrix(1, 0, 0, 1, 1773, 63.5)" filter="url(#Profile_bg)">
        <g id="Profile_bg-3" data-name="Profile bg" fill="#fff">
          <path d="M18.5,0A18.5,18.5,0,1,1,0,18.5,18.5,18.5,0,0,1,18.5,0Z" stroke="none"/>
          <path d="M 18.5 1 C 13.82558059692383 1 9.430940628051758 2.820320129394531 6.125629425048828 6.125629425048828 C 2.820320129394531 9.430940628051758 1 13.82558059692383 1 18.5 C 1 23.17441940307617 2.820320129394531 27.56906127929688 6.125629425048828 30.87437057495117 C 9.430940628051758 34.17967987060547 13.82558059692383 36 18.5 36 C 23.17441940307617 36 27.56906127929688 34.17967987060547 30.87437057495117 30.87437057495117 C 34.17967987060547 27.56906127929688 36 23.17441940307617 36 18.5 C 36 13.82558059692383 34.17967987060547 9.430940628051758 30.87437057495117 6.125629425048828 C 27.56906127929688 2.820320129394531 23.17441940307617 1 18.5 1 M 18.5 0 C 28.71726989746094 0 37 8.282730102539062 37 18.5 C 37 28.71726989746094 28.71726989746094 37 18.5 37 C 8.282730102539062 37 0 28.71726989746094 0 18.5 C 0 8.282730102539062 8.282730102539062 0 18.5 0 Z" stroke="none"/>
        </g>
      </g>
      <g id="Profile_bg-4" data-name="Profile bg" transform="translate(1773 63.5)" fill="none">
        <path d="M18.5,0A18.5,18.5,0,1,1,0,18.5,18.5,18.5,0,0,1,18.5,0Z" stroke="none"/>
        <path d="M 18.5 1 C 13.82558059692383 1 9.430940628051758 2.820320129394531 6.125629425048828 6.125629425048828 C 2.820320129394531 9.430940628051758 1 13.82558059692383 1 18.5 C 1 23.17441940307617 2.820320129394531 27.56906127929688 6.125629425048828 30.87437057495117 C 9.430940628051758 34.17967987060547 13.82558059692383 36 18.5 36 C 23.17441940307617 36 27.56906127929688 34.17967987060547 30.87437057495117 30.87437057495117 C 34.17967987060547 27.56906127929688 36 23.17441940307617 36 18.5 C 36 13.82558059692383 34.17967987060547 9.430940628051758 30.87437057495117 6.125629425048828 C 27.56906127929688 2.820320129394531 23.17441940307617 1 18.5 1 M 18.5 0 C 28.71726989746094 0 37 8.282730102539062 37 18.5 C 37 28.71726989746094 28.71726989746094 37 18.5 37 C 8.282730102539062 37 0 28.71726989746094 0 18.5 C 0 8.282730102539062 8.282730102539062 0 18.5 0 Z" stroke="none" fill="rgba(255,255,255,0.21)"/>
      </g>
    </g>
    <g id="highlight">
      <path id="Path_10221" data-name="Path 10221" d="M-9435.447-16510.65a14.171,14.171,0,0,0-3.579,4.984,16.35,16.35,0,0,0-.727,6.373" transform="translate(11217 16582.293)" fill="none" stroke="#fff" stroke-linecap="round" stroke-linejoin="bevel" stroke-width="1"/>
      <path id="Path_10222" data-name="Path 10222" d="M-9435.447-16510.65a14.171,14.171,0,0,0-3.579,4.984" transform="matrix(0.545, -0.839, 0.839, 0.545, 20763.283, 1164.273)" fill="none" stroke="#fff" stroke-linecap="round" stroke-linejoin="bevel" stroke-width="1"/>
    </g>
    <path id="User_icon" data-name="User icon" d="M15.424,15.91a3.338,3.338,0,0,1-3.48-3.48,3.338,3.338,0,0,1,3.48-3.48,3.338,3.338,0,0,1,3.48,3.48,3.338,3.338,0,0,1-3.48,3.48ZM8,23.357V21.177a2.553,2.553,0,0,1,.441-1.508,2.83,2.83,0,0,1,1.137-.951,17.439,17.439,0,0,1,2.981-1.044,12.052,12.052,0,0,1,2.865-.348,11.545,11.545,0,0,1,2.854.36,19.763,19.763,0,0,1,2.97,1.032,2.8,2.8,0,0,1,1.16.951,2.553,2.553,0,0,1,.441,1.508v2.181Z" transform="translate(1776.075 65.105)" fill="#909090"/>
  </g>
</svg>
