<svg id="upload_icon" data-name="upload icon" xmlns="http://www.w3.org/2000/svg" width="67.768" height="67.768" viewBox="0 0 67.768 67.768">
  <circle id="Ellipse_721" data-name="Ellipse 721" cx="33.884" cy="33.884" r="33.884" fill="#f2f5f9"/>
  <path id="upload_icon-2" data-name="upload icon" d="M7.29,25.39A7.244,7.244,0,0,1,2.823,12.408,6.226,6.226,0,0,1,9.017,6.174a6.105,6.105,0,0,1,2.586.575A10.972,10.972,0,0,1,32.1,7.377,9.107,9.107,0,0,1,30.268,25.39H25.09a.639.639,0,0,1,0-1.279h5.178A7.825,7.825,0,0,0,31.515,8.571l-.385-.063-.119-.375a9.712,9.712,0,0,0-18.477-.267l-.261.753L11.6,8.2a4.885,4.885,0,0,0-2.585-.745,4.952,4.952,0,0,0-4.925,4.968l.032.535-.292.292A5.962,5.962,0,0,0,7.182,24.109h.129c.062,0,.127,0,.189,0h6.714a.639.639,0,0,1,0,1.279H7.533c-.03,0-.068,0-.111,0Zm11.729-.641V13.486l-5.539,5.586a.632.632,0,0,1-.9,0,.644.644,0,0,1,0-.9L19.2,11.491v0l.448-.451.447.451v0l6.62,6.677a.643.643,0,0,1,0,.9.634.634,0,0,1-.448.186.627.627,0,0,1-.448-.186l-5.539-5.586V24.749a.634.634,0,1,1-1.267,0Z" transform="translate(14.233 19.556)" fill="#001689"/>
</svg>
