<svg xmlns="http://www.w3.org/2000/svg" width="15.344" height="10.462" viewBox="0 0 15.344 10.462">
  <path id="Visibility_ON" data-name="Visibility ON" d="M9.672,16.2a2.947,2.947,0,0,0,2.964-2.964,2.947,2.947,0,0,0-2.964-2.964,2.947,2.947,0,0,0-2.964,2.964A2.947,2.947,0,0,0,9.672,16.2Zm0-1.011a1.96,1.96,0,0,1-1.386-3.339,1.979,1.979,0,0,1,2.772,0,1.953,1.953,0,0,1-1.386,3.339Zm0,3.278a7.815,7.815,0,0,1-4.6-1.447A8.817,8.817,0,0,1,2,13.231,8.817,8.817,0,0,1,5.069,9.447,7.815,7.815,0,0,1,9.672,8a7.815,7.815,0,0,1,4.6,1.447,8.817,8.817,0,0,1,3.069,3.784,8.817,8.817,0,0,1-3.069,3.784A7.815,7.815,0,0,1,9.672,18.462ZM9.672,13.231Zm0,4.185a7.012,7.012,0,0,0,3.88-1.142,7.411,7.411,0,0,0,2.694-3.043,7.411,7.411,0,0,0-2.694-3.043,7.16,7.16,0,0,0-7.759,0,7.536,7.536,0,0,0-2.711,3.043,7.536,7.536,0,0,0,2.711,3.043A7.012,7.012,0,0,0,9.672,17.416Z" transform="translate(-2 -8)" fill="#222"/>
</svg>
